D:\school\WTK\thesis\model\3dpredictsim\Results\debug_batch\Pog_s1_tmt_aCst_d00_k800_ig24_act_TTC_GRF.mot
nRows=15
nColumns=19

name D:\school\WTK\thesis\model\3dpredictsim\Results\debug_batch\Pog_s1_tmt_aCst_d00_k800_ig24_act_TTC_GRF.mot
datacolumns 19
datarows 15
range 0.6610154575 0.8460997856
endheader
time 	ground_force_vx	ground_force_vy	ground_force_vz	ground_force_px	ground_force_py	ground_force_pz	1_ground_force_vx	1_ground_force_vy	1_ground_force_vz	1_ground_force_px	1_ground_force_py	1_ground_force_pz	ground_torque_x	ground_torque_y	ground_torque_z	1_ground_torque_x	1_ground_torque_y	1_ground_torque_z
        0.6610154575	       84.8197473538	      346.2161354962	        1.4862049917	        0.4432415094	        0.0000000000	        0.0313159218	      -58.8231304408	       51.1825892957	      -15.9378164867	        1.0449036538	        0.0000000000	       -0.0486311891	        0.0000000000	        0.0000000000	        0.0000000000	        0.0000000000	        0.0000000000	        0.0000000000	
        0.6742357666	       43.0677720866	      230.2783620657	       12.3794466492	        0.4573981685	        0.0000000000	        0.0258171829	     -106.2818004802	      204.9390391124	      -42.5648383604	        1.0512536844	        0.0000000000	       -0.0471325588	        0.0000000000	        0.0000000000	        0.0000000000	        0.0000000000	        0.0000000000	        0.0000000000	
        0.6874560758	       25.4843423492	      180.6066211047	       14.4525763512	        0.4628189331	        0.0000000000	        0.0233625970	      -85.1362001821	      481.7519972048	        0.2042148356	        1.0544878953	        0.0000000000	       -0.0458780968	        0.0000000000	        0.0000000000	        0.0000000000	        0.0000000000	        0.0000000000	        0.0000000000	
        0.7006763849	       20.9436810547	      135.6367840171	       15.0059828998	        0.4631971859	        0.0000000000	        0.0234694872	     -106.5213897389	      700.4475725177	       14.4467833863	        1.0589078285	        0.0000000000	       -0.0464118491	        0.0000000000	        0.0000000000	        0.0000000000	        0.0000000000	        0.0000000000	        0.0000000000	
        0.7138966941	        7.5474156447	       77.4385339648	       14.2218659167	        0.4631694214	        0.0000000000	        0.0237861519	     -160.6888805461	      885.0525121641	       20.8134635614	        1.0690097483	        0.0000000000	       -0.0488062794	        0.0000000000	        0.0000000000	        0.0000000000	        0.0000000000	        0.0000000000	        0.0000000000	
        0.7271170032	       -8.4237894455	       14.6352707586	        3.6440402482	        0.4594607020	        0.0000000000	        0.0236650669	     -177.3173526592	      937.2505246765	       21.0427773749	        1.0760032390	        0.0000000000	       -0.0502841210	        0.0000000000	        0.0000000000	        0.0000000000	        0.0000000000	        0.0000000000	        0.0000000000	
        0.7403373124	        0.5087902904	       -0.4145612678	        0.0301042289	        0.0000000000	        0.0000000000	        0.0000000000	     -161.8538758853	      903.0160632698	       19.3540521175	        1.0806954619	        0.0000000000	       -0.0511303083	        0.0000000000	        0.0000000000	        0.0000000000	        0.0000000000	        0.0000000000	        0.0000000000	
        0.7535576215	       -6.6480378469	        4.6990337980	       -0.4718829761	        0.0000000000	        0.0000000000	        0.0000000000	     -141.4966650620	      834.7242641896	       17.5332145490	        1.0844183131	        0.0000000000	       -0.0516243560	        0.0000000000	        0.0000000000	        0.0000000000	        0.0000000000	        0.0000000000	        0.0000000000	
        0.7667779307	       -5.4496077130	        3.3804945254	       -0.4601348260	        0.0000000000	        0.0000000000	        0.0000000000	     -124.0589529211	      780.3430917209	       16.6532651821	        1.0881327557	        0.0000000000	       -0.0518119280	        0.0000000000	        0.0000000000	        0.0000000000	        0.0000000000	        0.0000000000	        0.0000000000	
        0.7799982398	       -3.6226591483	        2.0515793223	       -0.3156245273	        0.0000000000	        0.0000000000	        0.0000000000	     -108.1425026726	      738.9109140384	       16.4826255642	        1.0919767782	        0.0000000000	       -0.0518115845	        0.0000000000	        0.0000000000	        0.0000000000	        0.0000000000	        0.0000000000	        0.0000000000	
        0.7932185490	       -2.8520833865	        1.5064473466	       -0.2454137280	        0.0000000000	        0.0000000000	        0.0000000000	      -95.6583093061	      707.3507570368	       16.6733186843	        1.0963731942	        0.0000000000	       -0.0516607350	        0.0000000000	        0.0000000000	        0.0000000000	        0.0000000000	        0.0000000000	        0.0000000000	
        0.8064388581	       -2.1653831466	        1.0854672886	       -0.1865233837	        0.0000000000	        0.0000000000	        0.0000000000	      -84.7982112105	      683.1206231033	       17.5166716445	        1.1013256450	        0.0000000000	       -0.0513338398	        0.0000000000	        0.0000000000	        0.0000000000	        0.0000000000	        0.0000000000	        0.0000000000	
        0.8196591673	       -1.6417421799	        0.7945311488	       -0.1327143851	        0.0000000000	        0.0000000000	        0.0000000000	      -73.9810427108	      660.1347708042	       18.1495714340	        1.1061786899	        0.0000000000	       -0.0510685867	        0.0000000000	        0.0000000000	        0.0000000000	        0.0000000000	        0.0000000000	        0.0000000000	
        0.8328794764	       -1.3144225101	        0.6182147544	       -0.1019093915	        0.0000000000	        0.0000000000	        0.0000000000	      -63.8662286984	      638.2476418966	       18.7772156202	        1.1107408276	        0.0000000000	       -0.0509109546	        0.0000000000	        0.0000000000	        0.0000000000	        0.0000000000	        0.0000000000	        0.0000000000	
        0.8460997856	       -1.1240560296	        0.5159580157	       -0.0836898251	        0.0000000000	        0.0000000000	        0.0000000000	      -54.6502896595	      619.3976574224	       19.0415799809	        1.1151522466	        0.0000000000	       -0.0508439611	        0.0000000000	        0.0000000000	        0.0000000000	        0.0000000000	        0.0000000000	        0.0000000000	
